<svg width="114" height="53" viewBox="0 0 114 53" fill="none" xmlns="http://www.w3.org/2000/svg">
<path d="M33.3672 34.6187L34.3975 33.5581L34.4502 33.6128L65.5459 9.27588C66.3064 10.8912 66.7344 12.6944 66.7344 14.5981V39.6235C66.7343 46.534 61.1322 52.1362 54.2217 52.1362H12.5127C5.60216 52.1362 3.78503e-05 46.5341 0 39.6235V14.5981C0 12.6947 0.426213 10.8911 1.18652 9.27588L33.3672 34.6187ZM54.2217 2.08545C57.2288 2.08547 59.9877 3.14677 62.1455 4.91455L33.2773 27.5073L4.58887 4.91455C6.74668 3.14678 9.50559 2.08545 12.5127 2.08545H54.2217Z" fill="white"/>
<path d="M70.6301 43.7945L82.0792 13.9309H88.0227L99.451 43.7945H92.2562L86.1667 25.8597L85.0406 22.1267H84.8946L83.7893 25.8388L77.6581 43.7945H70.6301ZM76.1566 37.9969L77.9083 33.2004H91.5054L93.3615 37.9969H76.1566Z" fill="white"/>
<path d="M102.396 43.7945V22.3561H108.923V43.7945H102.396Z" fill="white"/>
<path d="M105.414 3.922L107.884 9.77044L113.733 12.2411L107.884 14.7117L105.414 20.5602L102.943 14.7117L97.0947 12.2411L102.943 9.77044L105.414 3.922Z" fill="white"/>
<path d="M99.2932 17.7078L100.017 19.4205L101.73 20.1441L100.017 20.8676L99.2932 22.5804L98.5697 20.8676L96.8569 20.1441L98.5697 19.4205L99.2932 17.7078Z" fill="white"/>
<path d="M97.2732 0L98.5261 2.966L101.492 4.21897L98.5261 5.47194L97.2732 8.43793L96.0202 5.47194L93.0542 4.21897L96.0202 2.966L97.2732 0Z" fill="white"/>
</svg>
